# xmcd
#
# Track frame offsets: 
#        150
#        13971
#        24448
#        36890
#        50175
#        61807
#        73928
#        88176
#        102798
#        117657
#        132317
#        146410
#        160092
#        173915
#        187543
#        202170
#        216574
#        230747
#        244566
#        257634
#        270396
#        283252
#        297144
#        312475
#        327313
#        341576
#
# Disc length: 4713 seconds
#
# Revision: 1
# Processed by: cddbd v1.5.2PL0 Copyright (c) Steve Scherf et al.
# Submitted via: ExactAudioCopyFreeDBPlugin 1.0
#
DISCID=9712671a
DTITLE=Blind Willie McTell - Statesboro Blues CD1 (Compilation Blues C
DTITLE=haracters)
DYEAR=2015
DGENRE=Blues
TTITLE0=Mamma, 'tain't long fo' day
TTITLE1=Mr. McTell got the blues
TTITLE2=Three women blues
TTITLE3=Dark night blues
TTITLE4=Statesboro blues
TTITLE5=Loving talking blues
TTITLE6=Atlanta ttrut
TTITLE7=Travelin' blues
TTITLE8=Love changing blues
TTITLE9=Southern can is mine
TTITLE10=Stomp down rider
TTITLE11=Scarey day blues
TTITLE12=Georgia rag
TTITLE13=Rollin' mama blues
TTITLE14=Lonesome day blues
TTITLE15=Mama let me scoop for you
TTITLE16=Searching the desert for the blues
TTITLE17=It's your time to worry
TTITLE18=Death room blues
TTITLE19=B and O blues n° 2
TTITLE20=Bell Street blues
TTITLE21=Let me play with your yo-yo
TTITLE22=Lay some flowers on my grave
TTITLE23=Ticket agent blues
TTITLE24=Cold winter day
TTITLE25=Your time to worry
EXTD=
EXTT0=
EXTT1=
EXTT2=
EXTT3=
EXTT4=
EXTT5=
EXTT6=
EXTT7=
EXTT8=
EXTT9=
EXTT10=
EXTT11=
EXTT12=
EXTT13=
EXTT14=
EXTT15=
EXTT16=
EXTT17=
EXTT18=
EXTT19=
EXTT20=
EXTT21=
EXTT22=
EXTT23=
EXTT24=
EXTT25=
PLAYORDER=
